<?xml version="1.0" encoding="UTF-8"?>
<svg width="222px" height="130px" viewBox="0 0 222 130" version="1.1" xmlns="http://www.w3.org/2000/svg" xmlns:xlink="http://www.w3.org/1999/xlink">
    <!-- Generator: Sketch 48.2 (47327) - http://www.bohemiancoding.com/sketch -->
    <title>ic_empty</title>
    <desc>Created with Sketch.</desc>
    <defs>
        <polygon id="path-1" points="0 54.8903896 0 0 86.695197 0 86.695197 54.8903896 2.81007869e-15 54.8903896"></polygon>
        <polygon id="path-3" points="0 10.1914314 0 0.351088718 9.98724831 0.351088718 9.98724831 10.1914314 5.4810817e-16 10.1914314"></polygon>
        <polygon id="path-5" points="0.371915551 0.615288312 37.92275 0.615288312 37.92275 52.3227215 0.371915551 52.3227215 0.371915551 0.615288312"></polygon>
    </defs>
    <g id="8.-Empty-Cart" stroke="none" stroke-width="1" fill="none" fill-rule="evenodd" transform="translate(-401.000000, -135.000000)">
        <g id="Group-2" transform="translate(41.000000, 103.000000)">
            <g id="Group" transform="translate(360.000000, 32.000000)">
                <g id="ic_empty">
                    <path d="M215.78618,119.093107 L212.433145,119.093107 C209.285612,119.093107 206.735268,117.878657 206.735268,114.804795 C206.735268,111.732649 209.285612,110.516483 212.433145,110.516483 L212.907382,110.516483 C216.056671,110.516483 218.607015,107.586709 218.607015,104.512847 C218.607015,101.4407 216.056671,98.5092106 212.907382,98.5092106 L198.044425,98.5092106 C194.896893,98.5092106 192.346548,95.5794361 192.346548,92.5055742 C192.346548,89.4334277 194.896893,86.5019379 198.044425,86.5019379 L199.238801,86.5019379 C202.386334,86.5019379 204.936678,83.5721633 204.936678,80.4983015 C204.936678,77.426155 202.386334,74.4946651 199.238801,74.4946651 L165.66805,74.4946651 C162.520517,74.4946651 159.970173,77.426155 159.970173,80.4983015 C159.970173,83.5721633 162.520517,86.5019379 165.66805,86.5019379 L169.741224,86.5019379 C172.888756,86.5019379 175.4391,89.4334277 175.4391,92.5055742 C175.4391,95.5794361 172.888756,98.5092106 169.741224,98.5092106 L149.248891,98.5092106 C149.252403,98.5795389 149.269968,98.6550132 149.271724,98.7236262 C149.291045,99.816288 149.32793,100.907234 149.363059,101.999896 C149.740693,102.392706 150.049825,102.860989 150.24479,103.39274 C151.187995,105.976019 150.838465,108.696524 150.808605,111.374146 C150.780502,113.924833 148.432148,114.945452 146.47021,114.520051 C145.983677,114.808226 145.398784,114.993481 144.687428,114.993481 C144.346679,114.993481 144.041059,114.942021 143.751248,114.869977 C143.593168,117.36749 142.135327,118.63683 139.286389,119.755222 C138.671636,120.151462 134.789914,121.496277 134.789914,124.568423 C134.789914,127.642285 137.340258,129.385055 140.48779,129.385055 L174.056786,129.385055 C177.204318,129.385055 179.756419,127.312943 179.756419,124.239081 C179.756419,121.166934 177.204318,119.093107 174.056786,119.093107 L167.10657,119.093107 C163.959038,119.093107 161.408694,116.808294 161.408694,113.734432 C161.408694,110.662286 163.959038,108.243678 167.10657,108.243678 C167.10657,108.243678 196.038576,108.338021 195.762815,108.379189 C198.50988,108.785721 200.61936,111.170022 200.61936,113.962571 C200.61936,116.756834 198.50988,119.125698 195.762815,119.53223 C196.038576,119.573398 196.317849,119.609419 196.604148,119.609419 C193.456616,119.609419 190.906271,121.424233 190.906271,124.496379 C190.906271,127.571957 193.456616,129.385055 196.604148,129.385055 L215.78618,129.385055 C218.933712,129.385055 221.484057,127.312943 221.484057,124.239081 C221.484057,121.166934 218.933712,119.093107 215.78618,119.093107" id="Fill-1" fill="#E9F3E5"></path>
                    <g id="Group-5" transform="translate(0.000000, 17.888951)">
                        <mask id="mask-2" fill="white">
                            <use xlink:href="#path-1"></use>
                        </mask>
                        <g id="Clip-4"></g>
                        <path d="M55.8153045,42.8831169 L51.7438871,42.8831169 C48.5963547,42.8831169 46.0442539,41.6669517 46.0442539,38.5948052 C46.0442539,35.5209434 48.5963547,34.3064935 51.7438871,34.3064935 L75.7122058,34.3064935 C71.9551903,29.2274171 73.7414852,21.4226899 74.9112712,15.6643449 C75.4961642,12.7860301 78.4750788,11.0878587 81.3784667,11.020961 C81.2502469,11.0123844 81.1272964,10.9780779 80.9973202,10.9780779 C84.1448526,10.9780779 86.695197,8.56118545 86.695197,5.48903896 C86.695197,2.41517714 84.1448526,0 80.9973202,0 L47.4265686,0 C44.2790362,0 41.7286919,2.92977455 41.7286919,6.00363636 C41.7286919,9.07578286 44.2790362,12.0072727 47.4265686,12.0072727 L54.3767839,12.0072727 C57.5243163,12.0072727 60.0746606,14.0365018 60.0746606,17.1103636 C60.0746606,20.1842255 57.5243163,22.4741839 54.3767839,22.4741839 C54.3767839,22.4741839 25.4447784,22.316374 25.7205388,22.2752062 C22.9734737,21.8686743 20.8639947,19.4517818 20.8639947,16.6592332 C20.8639947,13.8649694 22.9734737,11.4806681 25.7205388,11.0741361 C25.4447784,11.0329683 25.1655052,10.9883699 24.8792062,10.9883699 C28.0267386,10.9883699 30.5770829,8.56804675 30.5770829,5.49418494 C30.5770829,2.42032312 28.0267386,0 24.8792062,0 L5.69717417,0 C2.54964176,0 -0.000702574197,2.92977455 -0.000702574197,6.00363636 C-0.000702574197,9.07578286 2.54964176,12.0072727 5.69717417,12.0072727 L9.05020952,12.0072727 C12.1977419,12.0072727 14.7480863,14.0793849 14.7480863,17.1532468 C14.7480863,20.2253932 12.1977419,22.2992208 9.05020952,22.2992208 L8.57597194,22.2992208 C5.42843954,22.2992208 2.8780952,25.2289953 2.8780952,28.3028571 C2.8780952,31.3750036 5.42843954,34.3064935 8.57597194,34.3064935 L23.4406855,34.3064935 C26.5882179,34.3064935 29.1385623,35.5209434 29.1385623,38.5948052 C29.1385623,41.6669517 26.5882179,42.8831169 23.4406855,42.8831169 L22.2463094,42.8831169 C19.0970205,42.8831169 16.5466762,45.8128914 16.5466762,48.8867532 C16.5466762,51.9588997 19.0970205,54.8903896 22.2463094,54.8903896 L55.8153045,54.8903896 C58.9628369,54.8903896 61.5131813,51.9588997 61.5131813,48.8867532 C61.5131813,45.8128914 58.9628369,42.8831169 55.8153045,42.8831169" id="Fill-3" fill="#E9F3E5" mask="url(#mask-2)"></path>
                    </g>
                    <path d="M30.4253269,90.5974471 C29.9756794,90.5974471 29.6120973,90.9525193 29.6120973,91.3916424 L29.6120973,96.4021058 C29.6120973,96.8412289 29.9756794,97.1963011 30.4253269,97.1963011 C30.8749744,97.1963011 31.2385565,96.8412289 31.2385565,96.4021058 L31.2385565,91.3916424 C31.2385565,90.9525193 30.8749744,90.5974471 30.4253269,90.5974471" id="Fill-6" fill="#42B549"></path>
                    <path d="M30.4253269,101.608631 C29.9756794,101.608631 29.6120973,101.963703 29.6120973,102.402826 L29.6120973,107.413289 C29.6120973,107.852413 29.9756794,108.207485 30.4253269,108.207485 C30.8749744,108.207485 31.2385565,107.852413 31.2385565,107.413289 L31.2385565,102.402826 C31.2385565,101.963703 30.8749744,101.608631 30.4253269,101.608631" id="Fill-8" fill="#42B549"></path>
                    <path d="M25.9931376,98.6099002 L22.2203141,98.6099002 C21.7724231,98.6099002 21.4088409,98.9649724 21.4088409,99.4040955 C21.4088409,99.8415033 21.7724231,100.196575 22.2203141,100.196575 L25.9931376,100.196575 C26.4427851,100.196575 26.8063672,99.8415033 26.8063672,99.4040955 C26.8063672,98.9649724 26.4427851,98.6099002 25.9931376,98.6099002" id="Fill-10" fill="#42B549"></path>
                    <path d="M38.6298127,98.6099002 L34.8569893,98.6099002 C34.4090983,98.6099002 34.0455161,98.9649724 34.0455161,99.4040955 C34.0455161,99.8415033 34.4090983,100.196575 34.8569893,100.196575 L38.6298127,100.196575 C39.0794602,100.196575 39.4430424,99.8415033 39.4430424,99.4040955 C39.4430424,98.9649724 39.0794602,98.6099002 38.6298127,98.6099002" id="Fill-12" fill="#42B549"></path>
                    <path d="M165.926948,53.3325331 C166.439827,53.3325331 166.938655,53.2519128 167.418162,53.1164022 C168.496613,52.2758931 169.2027,50.9979762 169.2027,49.5450962 C169.2027,47.0149923 167.102004,44.9651793 164.513018,44.9651793 C163.041125,44.9651793 161.744875,45.6393019 160.885978,46.6736427 C160.738438,47.1487876 160.634808,47.6428011 160.634808,48.1642598 C160.634808,51.0134141 163.007752,53.3325331 165.926948,53.3325331" id="Fill-14" fill="#FBF8C7"></path>
                    <path d="M165.926948,41.4070814 C162.11197,41.4070814 159.010105,44.4380601 159.010105,48.1637452 C159.010105,51.8894304 162.11197,54.9204091 165.926948,54.9204091 C167.414649,54.9204091 168.82858,54.4675634 170.022956,53.6081858 C170.383025,53.3491717 170.460308,52.8517276 170.19333,52.4983707 C169.928108,52.1450138 169.420498,52.0695395 169.058673,52.3319842 C168.558089,52.6922024 168.003055,52.9477858 167.418162,53.1158876 C166.938655,53.2531136 166.439827,53.3320185 165.926948,53.3320185 C163.007752,53.3320185 160.634808,51.0146149 160.634808,48.1637452 C160.634808,47.6422865 160.738438,47.148273 160.885978,46.6748434 C161.544642,44.5529868 163.543465,42.9937567 165.926948,42.9937567 C168.846144,42.9937567 171.219088,45.314591 171.219088,48.1637452 C171.219088,48.6028684 171.582671,48.9579406 172.032318,48.9579406 C172.480209,48.9579406 172.843791,48.6028684 172.843791,48.1637452 C172.843791,44.4380601 169.741926,41.4070814 165.926948,41.4070814" id="Fill-16" fill="#42B549"></path>
                    <path d="M176.990384,102.238498 C176.990384,102.507804 176.8446,102.734227 176.633828,102.878314 C177.197643,103.816597 178.230428,104.452982 179.423047,104.452982 C181.216368,104.452982 182.66894,103.032693 182.66894,101.283062 C182.66894,100.509451 182.375615,99.8113136 181.903134,99.2606943 C181.448217,99.0411328 180.94412,98.9056221 180.403138,98.9056221 C178.520239,98.9056221 176.990384,100.39967 176.990384,102.238498" id="Fill-18" fill="#FBF8C7"></path>
                    <path d="M180.40226,97.3194614 C177.625336,97.3194614 175.364803,99.5270843 175.364803,102.239013 C175.364803,102.67642 175.728385,103.031493 176.178033,103.031493 C176.350163,103.031493 176.502973,102.968026 176.632949,102.877113 C176.843722,102.734741 176.989506,102.508319 176.989506,102.239013 C176.989506,100.400185 178.519361,98.9061367 180.40226,98.9061367 C180.943242,98.9061367 181.449096,99.0416474 181.904012,99.2612089 C183.031644,99.8049669 183.815014,100.928505 183.815014,102.239013 C183.815014,104.076125 182.285159,105.571888 180.40226,105.571888 C179.952613,105.571888 179.58903,105.926961 179.58903,106.366084 C179.58903,106.803492 179.952613,107.158564 180.40226,107.158564 C183.180941,107.158564 185.441473,104.952656 185.441473,102.239013 C185.441473,99.5270843 183.180941,97.3194614 180.40226,97.3194614" id="Fill-20" fill="#42B549"></path>
                    <path d="M8.29142939,71.5497957 C7.90501358,69.7504202 6.09237215,68.5994373 4.25514063,68.9665168 C3.98113669,69.0231225 3.72469711,68.9287796 3.54027138,68.7572472 C2.71650313,69.4862602 2.28793287,70.6029365 2.53207741,71.7436274 C2.89565955,73.4572368 4.6152099,74.5584752 6.36988896,74.2016877 C7.14447701,74.0438778 7.78557597,73.6201926 8.24049276,73.0575661 C8.36871255,72.5772752 8.40208483,72.0678238 8.29142939,71.5497957" id="Fill-22" fill="#FBF8C7"></path>
                    <g id="Group-26" transform="translate(0.000000, 66.958042)">
                        <mask id="mask-4" fill="white">
                            <use xlink:href="#path-3"></use>
                        </mask>
                        <g id="Clip-25"></g>
                        <path d="M3.92334996,0.455248519 C3.48424109,0.542730078 3.20145497,0.964699948 3.29454606,1.39353112 C3.32967477,1.55820229 3.42452228,1.69028229 3.54044702,1.79834774 C3.72487275,1.96988021 3.9795559,2.06422306 4.25531627,2.00761735 C6.0925478,1.64053787 7.90518923,2.79152073 8.29160503,4.59089631 C8.40050404,5.10892436 8.3688882,5.62009112 8.24066841,6.10038203 C7.92451002,7.28910203 6.95671406,8.26855242 5.64465675,8.53442774 C3.79513017,8.90322255 1.99127092,7.74709371 1.60836798,5.94943345 C1.5152769,5.52060229 1.08670664,5.23242774 0.647597767,5.3336319 C0.208488893,5.42282878 -0.0742972214,5.84308332 0.0170374243,6.27191449 C0.510595798,8.59103345 2.61304908,10.1914314 4.94910829,10.1914314 C5.28810034,10.1914314 5.63060526,10.1571249 5.97486662,10.0867966 C8.69382876,9.53617735 10.4467514,6.92545319 9.88117916,4.26841527 C9.31560693,1.61309268 6.64933785,-0.0988013506 3.92334996,0.455248519" id="Fill-24" fill="#42B549" mask="url(#mask-4)"></path>
                    </g>
                    <path d="M149.210952,6.45837029 C148.761304,6.45837029 148.397722,6.81344249 148.397722,7.25256561 L148.397722,9.6711734 C148.397722,10.1102965 148.761304,10.4653687 149.210952,10.4653687 C149.660599,10.4653687 150.024181,10.1102965 150.024181,9.6711734 L150.024181,7.25256561 C150.024181,6.81344249 149.660599,6.45837029 149.210952,6.45837029" id="Fill-27" fill="#42B549"></path>
                    <path d="M149.210952,17.5160393 C148.761304,17.5160393 148.397722,17.8711115 148.397722,18.3102346 L148.397722,20.7013972 C148.397722,21.138805 148.761304,21.4938772 149.210952,21.4938772 C149.660599,21.4938772 150.024181,21.138805 150.024181,20.7013972 L150.024181,18.3102346 C150.024181,17.8711115 149.660599,17.5160393 149.210952,17.5160393" id="Fill-29" fill="#42B549"></path>
                    <path d="M145.123024,12.8712831 L142.64645,12.8712831 C142.196802,12.8712831 141.83322,13.2263553 141.83322,13.6654784 C141.83322,14.1028862 142.196802,14.4579584 142.64645,14.4579584 L145.123024,14.4579584 C145.572671,14.4579584 145.936253,14.1028862 145.936253,13.6654784 C145.936253,13.2263553 145.572671,12.8712831 145.123024,12.8712831" id="Fill-31" fill="#42B549"></path>
                    <path d="M155.777561,12.8712831 L153.300987,12.8712831 C152.85134,12.8712831 152.487758,13.2263553 152.487758,13.6654784 C152.487758,14.1028862 152.85134,14.4579584 153.300987,14.4579584 L155.777561,14.4579584 C156.227209,14.4579584 156.590791,14.1028862 156.590791,13.6654784 C156.590791,13.2263553 156.227209,12.8712831 155.777561,12.8712831" id="Fill-33" fill="#42B549"></path>
                    <path d="M41.0642323,31.9161899 C40.7779334,31.9161899 40.5478403,32.1426128 40.5478403,32.4204954 L40.5478403,33.9608569 C40.5478403,34.2404549 40.7779334,34.4651624 41.0642323,34.4651624 C41.3505313,34.4651624 41.5806244,34.2404549 41.5806244,33.9608569 L41.5806244,32.4204954 C41.5806244,32.1426128 41.3505313,31.9161899 41.0642323,31.9161899" id="Fill-35" fill="#42B549"></path>
                    <path d="M41.0642323,38.9503934 C40.7779334,38.9503934 40.5478403,39.1768162 40.5478403,39.4546988 L40.5478403,40.9761918 C40.5478403,41.2557897 40.7779334,41.4804972 41.0642323,41.4804972 C41.3505313,41.4804972 41.5806244,41.2557897 41.5806244,40.9761918 L41.5806244,39.4546988 C41.5806244,39.1768162 41.3505313,38.9503934 41.0642323,38.9503934" id="Fill-37" fill="#42B549"></path>
                    <path d="M38.4636539,35.9957466 L36.8863749,35.9957466 C36.6018323,35.9957466 36.3699828,36.2221695 36.3699828,36.5000521 C36.3699828,36.77965 36.6018323,37.0060728 36.8863749,37.0060728 L38.4636539,37.0060728 C38.7499529,37.0060728 38.980046,36.77965 38.980046,36.5000521 C38.980046,36.2221695 38.7499529,35.9957466 38.4636539,35.9957466" id="Fill-39" fill="#42B549"></path>
                    <path d="M45.2415629,35.9957466 L43.6642838,35.9957466 C43.3797412,35.9957466 43.1478918,36.2221695 43.1478918,36.5000521 C43.1478918,36.77965 43.3797412,37.0060728 43.6642838,37.0060728 L45.2415629,37.0060728 C45.5278619,37.0060728 45.7579549,36.77965 45.7579549,36.5000521 C45.7579549,36.2221695 45.5278619,35.9957466 45.2415629,35.9957466" id="Fill-41" fill="#42B549"></path>
                    <path d="M192.820435,65.1660434 C192.42348,65.1660434 192.103809,65.4799478 192.103809,65.8658959 L192.103809,68.0031904 C192.103809,68.3908538 192.42348,68.7047582 192.820435,68.7047582 C193.217389,68.7047582 193.53706,68.3908538 193.53706,68.0031904 L193.53706,65.8658959 C193.53706,65.4799478 193.217389,65.1660434 192.820435,65.1660434" id="Fill-43" fill="#42B549"></path>
                    <path d="M192.820435,74.9289854 C192.42348,74.9289854 192.103809,75.2428898 192.103809,75.6288378 L192.103809,77.7404025 C192.103809,78.1280659 192.42348,78.4419703 192.820435,78.4419703 C193.217389,78.4419703 193.53706,78.1280659 193.53706,77.7404025 L193.53706,75.6288378 C193.53706,75.2428898 193.217389,74.9289854 192.820435,74.9289854" id="Fill-45" fill="#42B549"></path>
                    <path d="M189.211135,70.8281586 L187.022617,70.8281586 C186.625662,70.8281586 186.305991,71.1420631 186.305991,71.5280111 C186.305991,71.9156745 186.625662,72.2295789 187.022617,72.2295789 L189.211135,72.2295789 C189.60809,72.2295789 189.927761,71.9156745 189.927761,71.5280111 C189.927761,71.1420631 189.60809,70.8281586 189.211135,70.8281586" id="Fill-47" fill="#42B549"></path>
                    <path d="M198.618253,70.8281586 L196.429734,70.8281586 C196.03278,70.8281586 195.713108,71.1420631 195.713108,71.5280111 C195.713108,71.9156745 196.03278,72.2295789 196.429734,72.2295789 L198.618253,72.2295789 C199.015207,72.2295789 199.334878,71.9156745 199.334878,71.5280111 C199.334878,71.1420631 199.015207,70.8281586 198.618253,70.8281586" id="Fill-49" fill="#42B549"></path>
                    <path d="M80.1846175,31.8576974 C80.2706829,30.9176994 81.1295798,30.149234 82.0956193,30.149234 L124.575012,30.149234 C125.541051,30.149234 126.347255,29.3773379 126.366576,28.4339093 L126.401705,26.8043509 C126.421025,25.8609223 125.646437,25.0890262 124.680398,25.0890262 L74.209224,25.0890262 C73.2431844,25.0890262 72.3807746,25.8574916 72.2929528,26.7974896 L67.2186107,80.6809836 C67.1307889,81.6209815 67.849171,82.389447 68.8152106,82.389447 L73.8403725,82.389447 C74.806412,82.389447 75.6670654,81.6209815 75.7513743,80.6809836 L80.1846175,31.8576974 Z" id="Fill-51" fill="#FBF8C7"></path>
                    <path d="M149.395729,115.789734 L104.497725,115.789734 C103.916344,115.789734 103.443863,115.328312 103.443863,114.76054 C103.443863,114.192767 103.916344,113.73306 104.497725,113.73306 L149.395729,113.73306 C149.61177,113.73306 149.741746,113.640433 149.812004,113.564958 C149.884018,113.487769 149.964814,113.352258 149.945493,113.144704 L149.420319,107.362344 C149.334253,106.420631 149.200764,104.878554 149.125238,103.936841 L148.759899,99.4838581 C148.714232,98.9178009 149.146315,98.4220721 149.725939,98.3774737 C150.323127,98.3037147 150.814929,98.7531298 150.860596,99.3191869 L151.225934,103.77217 C151.301461,104.710452 151.43495,106.243953 151.519259,107.178805 L152.04619,112.962879 C152.112934,113.695323 151.865277,114.422621 151.368206,114.954371 C150.869378,115.484407 150.150996,115.789734 149.395729,115.789734" id="Fill-53" fill="#42B549"></path>
                    <path d="M149.407672,96.5710652 C148.868447,96.5710652 148.408261,96.1696793 148.35908,95.634498 L147.965639,91.3719162 C147.912946,90.805859 148.341516,90.3066995 148.92114,90.2535245 C149.50252,90.2072107 150.011886,90.6206039 150.064579,91.1866611 L150.458021,95.4509582 C150.510714,96.0170154 150.082144,96.5161749 149.50252,96.5676346 C149.470904,96.5710652 149.439288,96.5710652 149.407672,96.5710652" id="Fill-55" fill="#42B549"></path>
                    <path d="M148.639232,88.3881089 C148.09825,88.3881089 147.638064,87.9850076 147.59064,87.448111 L144.365824,51.8173868 C144.281515,50.8825349 144.126949,49.3541806 144.026832,48.4210439 L141.681991,26.9022959 C141.636324,26.4837567 141.218292,26.1166772 140.787965,26.1166772 L74.2102778,26.1166772 C73.7852204,26.1166772 73.3812403,26.4786107 73.3425987,26.8902886 L71.5703553,45.710831 C71.5159058,46.2768881 71.0153217,46.6971426 70.4234029,46.6422523 C69.8455356,46.5907925 69.4169654,46.0899177 69.4714149,45.5238606 L71.2436583,26.7033182 C71.3806602,25.2452923 72.7102819,24.0600029 74.2102778,24.0600029 L140.787965,24.0600029 C142.305525,24.0600029 143.617583,25.2127011 143.777418,26.6844497 L146.12226,48.2031977 C146.224133,49.1466263 146.378699,50.6904185 146.464765,51.6338471 L149.68958,87.2714325 C149.740517,87.8374897 149.31019,88.3366491 148.730567,88.3846782 C148.700707,88.3881089 148.669091,88.3881089 148.639232,88.3881089" id="Fill-57" fill="#42B549"></path>
                    <path d="M67.2607651,83.1802116 C67.2291493,83.1802116 67.1975335,83.1802116 67.1659176,83.176781 C66.5862939,83.1270366 66.1594801,82.6278771 66.2104167,82.0618199 L69.0119313,51.2700267 C69.062868,50.7039696 69.5704778,50.2734231 70.1553708,50.3368901 C70.7349946,50.3866345 71.1635648,50.885794 71.1108718,51.4518511 L68.3093571,82.241929 C68.2601769,82.7788257 67.8017473,83.1802116 67.2607651,83.1802116" id="Fill-59" fill="#42B549"></path>
                    <g id="Group-63" transform="translate(88.889082, 0.060379)">
                        <mask id="mask-6" fill="white">
                            <use xlink:href="#path-5"></use>
                        </mask>
                        <g id="Clip-62"></g>
                        <path d="M1.42577685,52.3227215 C0.842640263,52.3227215 0.371915551,51.8612991 0.371915551,51.2935266 L0.371915551,20.7693241 C0.371915551,9.65573548 8.79402374,0.614259117 19.1464545,0.614259117 C29.5006418,0.614259117 37.92275,9.65573548 37.92275,20.7693241 L37.92275,31.6256139 C37.92275,32.1933864 37.4520253,32.6530934 36.8688887,32.6530934 C36.2875085,32.6530934 35.8150274,32.1933864 35.8150274,31.6256139 L35.8150274,20.7693241 C35.8150274,10.7912804 28.3378815,2.67264873 19.1464545,2.67264873 C9.95678404,2.67264873 2.47963814,10.7912804 2.47963814,20.7693241 L2.47963814,51.2935266 C2.47963814,51.8612991 2.00891343,52.3227215 1.42577685,52.3227215" id="Fill-61" fill="#42B549" mask="url(#mask-6)"></path>
                    </g>
                    <polygon id="Stroke-64" stroke="#42B549" stroke-width="1.2" stroke-linecap="round" stroke-linejoin="round" points="90.3146836 69.4651617 97.233283 69.4651617 97.233283 50.975677 90.3146836 44.2190131 83.3960842 50.975677 83.3960842 69.4651617"></polygon>
                    <path d="M83.3953816,64.3034066 L97.2343368,64.3034066" id="Stroke-66" stroke="#42B549" stroke-width="1.2" stroke-linecap="round" stroke-linejoin="round"></path>
                    <path d="M57.0613199,99.0871035 C55.1292408,99.0853882 53.5484489,100.627465 53.5484489,102.514322 L53.5484489,122.204534 C53.5484489,124.091391 55.1292408,125.635183 57.0613199,125.635183 L59.7152939,125.635183 C61.647373,125.635183 63.2281649,124.091391 63.2281649,122.204534 L63.2281649,102.522899 C63.2281649,100.636042 61.647373,99.0922495 59.7152939,99.0888188 L57.0613199,99.0871035 Z" id="Fill-68" fill="#FBF8C7"></path>
                    <path d="M100.45037,126.664721 L57.0611442,126.664721 C54.5424157,126.664721 52.494412,124.664653 52.494412,122.204877 L52.494412,99.0840159 C52.494412,98.5162434 52.9651367,98.0548211 53.5482733,98.0548211 C54.1296534,98.0548211 54.6021345,98.5162434 54.6021345,99.0840159 L54.6021345,122.204877 C54.6021345,123.529108 55.705176,124.608047 57.0611442,124.608047 L100.45037,124.608047 C101.806338,124.608047 102.90938,123.529108 102.90938,122.204877 L102.90938,99.1714975 C102.90938,98.603725 103.380105,98.1423026 103.963241,98.1423026 C104.546378,98.1423026 105.017103,98.603725 105.017103,99.1714975 L105.017103,122.204877 C105.017103,124.664653 102.969099,126.664721 100.45037,126.664721" id="Fill-70" fill="#42B549"></path>
                    <path d="M105.394912,88.1433321 L99.8761915,83.8601663 C99.1191678,83.2735253 97.7105065,82.7932344 96.744467,82.7932344 L60.9237215,82.7932344 C59.957682,82.7932344 58.5472643,83.2735253 57.7902406,83.858451 L52.8774905,87.6613258" id="Fill-72" fill="#FBF8C7"></path>
                    <path d="M105.393858,89.1720123 C105.163765,89.1720123 104.933672,89.0999686 104.738707,88.9490201 L99.2199872,84.6658543 C98.6509021,84.2250159 97.4705774,83.8219146 96.7434131,83.8219146 L60.9244241,83.8219146 C60.1972598,83.8219146 59.0151787,84.2233006 58.4460936,84.664139 L53.5333435,88.4670138 C53.0749139,88.8238014 52.4127377,88.7448964 52.0526684,88.3006273 C51.6908427,87.8546429 51.7681259,87.2062502 52.2247991,86.8546086 L57.1357927,83.0534491 C58.0842679,82.3175749 59.7124836,81.7652403 60.9244241,81.7652403 L96.7434131,81.7652403 C97.9535972,81.7652403 99.5818129,82.3192902 100.530288,83.0551645 L106.050765,87.3383302 C106.505682,87.6916871 106.581208,88.3400798 106.219383,88.7826336 C106.012123,89.0399323 105.704747,89.1720123 105.393858,89.1720123" id="Fill-74" fill="#42B549"></path>
                    <path d="M64.4202577,92.3968226 C64.4202577,91.4533941 65.2106536,90.681498 66.1766932,90.681498 L104.755042,90.681498 C105.721082,90.681498 106.511478,90.0382512 106.511478,89.2509172 C106.511478,88.4635832 105.721082,87.8186211 104.755042,87.8186211 L52.9138488,87.8186211 C51.9478092,87.8186211 51.1574133,88.5905172 51.1574133,89.5339458 L51.1574133,96.6645504 C51.1574133,97.607979 51.9478092,98.3798751 52.9138488,98.3798751 L62.6638222,98.3798751 C63.6298617,98.3798751 64.4202577,97.607979 64.4202577,96.6645504 L64.4202577,92.3968226 Z" id="Fill-76" fill="#FBF8C7"></path>
                    <path d="M96.0027243,115.689216 L86.9500557,115.689216 C86.3686756,115.689216 85.8961945,115.227794 85.8961945,114.660022 C85.8961945,114.092249 86.3686756,113.632542 86.9500557,113.632542 L96.0027243,113.632542 C96.5858609,113.632542 97.0565856,114.092249 97.0565856,114.660022 C97.0565856,115.227794 96.5858609,115.689216 96.0027243,115.689216" id="Fill-78" fill="#42B549"></path>
                    <path d="M96.0027243,109.724175 L86.9500557,109.724175 C86.3686756,109.724175 85.8961945,109.262753 85.8961945,108.69498 C85.8961945,108.127208 86.3686756,107.667501 86.9500557,107.667501 L96.0027243,107.667501 C96.5858609,107.667501 97.0565856,108.127208 97.0565856,108.69498 C97.0565856,109.262753 96.5858609,109.724175 96.0027243,109.724175" id="Fill-80" fill="#42B549"></path>
                    <path d="M104.754867,99.4070115 L72.7473427,99.4070115 C72.1659626,99.4070115 71.6934814,98.9455892 71.6934814,98.3778167 C71.6934814,97.8100443 72.1659626,97.3503372 72.7473427,97.3503372 L104.754867,97.3503372 C105.143039,97.3503372 105.457441,97.0415788 105.457441,96.6624921 L105.457441,89.5336027 C105.457441,89.1613772 105.136013,88.8474728 104.754867,88.8474728 L52.9136731,88.8474728 C52.5325266,88.8474728 52.2110989,89.1613772 52.2110989,89.5336027 L52.2110989,96.6624921 C52.2110989,97.0415788 52.5255009,97.3503372 52.9136731,97.3503372 L62.3545139,97.3503372 C62.9376505,97.3503372 63.4083752,97.8100443 63.4083752,98.3778167 C63.4083752,98.9455892 62.9376505,99.4070115 62.3545139,99.4070115 L52.9136731,99.4070115 C51.364497,99.4070115 50.1033763,98.1754084 50.1033763,96.6624921 L50.1033763,89.5336027 C50.1033763,88.0206863 51.364497,86.7907985 52.9136731,86.7907985 L104.754867,86.7907985 C106.304043,86.7907985 107.565163,88.0206863 107.565163,89.5336027 L107.565163,96.6624921 C107.565163,98.1754084 106.304043,99.4070115 104.754867,99.4070115" id="Fill-82" fill="#42B549"></path>
                    <path d="M68.6604686,99.4070115 L65.7237084,99.4070115 C65.1405719,99.4070115 64.6698472,98.9455892 64.6698472,98.3778167 C64.6698472,97.8100443 65.1405719,97.3503372 65.7237084,97.3503372 L68.6604686,97.3503372 C69.2436052,97.3503372 69.7143299,97.8100443 69.7143299,98.3778167 C69.7143299,98.9455892 69.2436052,99.4070115 68.6604686,99.4070115" id="Fill-84" fill="#42B549"></path>
                </g>
            </g>
        </g>
    </g>
</svg>